<mxfile host="app.diagrams.net" modified="2023-07-04T07:01:11.071Z" agent="Mozilla/5.0 (Macintosh; Intel Mac OS X 10_15_7) AppleWebKit/537.36 (KHTML, like Gecko) Chrome/114.0.0.0 Safari/537.36" version="21.5.2" etag="Q3dcygzFXotllnbjsQQC" type="github">
  <diagram name="페이지-1" id="9m6UewLJP1Ai3cACO78o">
    <mxGraphModel>
      <root>
        <mxCell id="0" />
        <mxCell id="1" parent="0" />
      </root>
    </mxGraphModel>
  </diagram>
</mxfile>
